<?xml version="1.0" encoding="UTF-8"?>
<svg version="1.1" xmlns="http://www.w3.org/2000/svg" width="2000" height="2000">
<path d="M0 0 C1.42113098 0.12728485 1.42113098 0.12728485 2.87097168 0.25714111 C95.27730886 8.61801028 186.74470549 29.22598433 355.64794922 99.35546875 C357.77811851 100.40053942 359.90978875 101.44256048 362.04345703 102.48046875 C375.44346229 108.99902011 388.43684962 116.08054973 401.35888672 123.49804688 C404.44672451 125.25404411 407.5616191 126.95549765 410.68286133 128.65112305 C440.99495041 145.18151485 470.09431902 164.68850658 498 185 C498.73750488 185.53463867 499.47500977 186.06927734 500.23486328 186.62011719 C525.03691895 204.63095075 548.82714351 223.83145987 571.81640625 244.1015625 C573.62502521 245.6739933 575.4464737 247.22713992 577.27734375 248.7734375 C583.33415133 253.89937319 589.25708316 259.0204993 594.7421875 264.76953125 C596.64227172 266.64660406 598.57594627 268.37223429 600.60180664 270.10839844 C605.130003 274.0584585 609.38700246 278.24268102 613.62890625 282.49609375 C614.8189048 283.68465721 614.8189048 283.68465721 616.03294373 284.89723206 C617.69889081 286.56250283 619.36359256 288.22902029 621.02709961 289.89672852 C623.55536134 292.43034622 626.08891661 294.95858167 628.62304688 297.48632812 C630.2503207 299.11426283 631.87728425 300.74250775 633.50390625 302.37109375 C634.25201065 303.11717392 635.00011505 303.86325409 635.77088928 304.63194275 C639.8200662 308.69898548 643.70893962 312.85002915 647.44700623 317.20545959 C650.04942572 320.21264932 652.78021532 323.09930657 655.5 326 C660.09150696 330.92504463 664.63232877 335.87398585 669 341 C670.17369141 342.37285156 670.17369141 342.37285156 671.37109375 343.7734375 C674.26402015 347.16838435 677.13573885 350.58084939 680 354 C680.5460791 354.65178223 681.0921582 355.30356445 681.65478516 355.97509766 C689.82665171 365.75377879 697.70912478 375.7122629 705.39111328 385.87939453 C706.99935947 387.99915575 708.62031319 390.10850805 710.24609375 392.21484375 C762.73601114 460.24505829 806.4430947 536.47888633 910 910 C910.0835675 910.92292847 910.16713501 911.84585693 910.25323486 912.79675293 C915.30438897 969.35820753 915.11999753 1027.45419939 910 1084 C909.91514343 1084.94742065 909.83028687 1085.89484131 909.74285889 1086.87097168 C903.17206225 1159.49299663 889.22300789 1231.55613597 866.66674805 1300.94366455 C865.99460878 1303.01662722 865.32943607 1305.09171242 864.66601562 1307.16748047 C844.91373557 1368.86414898 818.91278536 1429.44429278 786.42138672 1485.52001953 C784.68875816 1488.5430427 783.02226475 1491.59887915 781.35986328 1494.66088867 C764.83795976 1524.98315767 745.31791248 1554.093054 725 1582 C724.44940918 1582.75877441 723.89881836 1583.51754883 723.33154297 1584.29931641 C712.17147602 1599.65170815 700.47795158 1614.49989391 688.47216797 1629.19580078 C687.17728489 1630.78273046 685.88709522 1632.37348737 684.59765625 1633.96484375 C675.94130634 1644.62483343 667.01638626 1655.02733013 657.66796875 1665.0859375 C655.60547588 1667.33867495 653.58335646 1669.61113406 651.578125 1671.9140625 C640.13339717 1685.03208634 627.79335764 1697.31066778 615.5 1709.625 C614.79650421 1710.33108398 614.09300842 1711.03716797 613.36819458 1711.76464844 C611.32133702 1713.81743529 609.27070574 1715.86637298 607.21875 1717.9140625 C606.61079086 1718.52400055 606.00283173 1719.1339386 605.37644958 1719.76235962 C601.66419915 1723.45502662 597.83448239 1726.96060727 593.86547852 1730.37606812 C590.66311237 1733.16378421 587.58937866 1736.088436 584.5 1739 C579.41421139 1743.76597866 574.31290334 1748.48656211 569 1753 C567.62908203 1754.17175781 567.62908203 1754.17175781 566.23046875 1755.3671875 C562.83439521 1758.26162932 559.4205613 1761.1345571 556 1764 C555.34821777 1764.5460791 554.69643555 1765.0921582 554.02490234 1765.65478516 C544.24622121 1773.82665171 534.2877371 1781.70912478 524.12060547 1789.39111328 C522.00084425 1790.99935947 519.89149195 1792.62031319 517.78515625 1794.24609375 C449.76524585 1846.7280608 373.51415823 1890.50417663 0 1994 C-0.94224426 1994.0835675 -1.88448853 1994.16713501 -2.85528564 1994.25323486 C-54.23037534 1998.72519361 -107.38695774 1999.50019162 -158.81878662 1995.18035889 C-161.16452349 1994.98639598 -163.51103527 1994.80513928 -165.85791016 1994.62548828 C-253.05812304 1987.87940423 -339.74234566 1969.84588668 -479 1918 C-480.6392041 1917.29593018 -480.6392041 1917.29593018 -482.31152344 1916.57763672 C-518.89338 1900.80475056 -554.9596826 1883.12085901 -589.16650391 1862.68652344 C-591.9705937 1861.0175029 -594.78573046 1859.36898484 -597.60546875 1857.7265625 C-617.2559054 1846.25976734 -636.34198949 1834.01693186 -655 1821 C-655.71462402 1820.50290527 -656.42924805 1820.00581055 -657.16552734 1819.49365234 C-678.50187755 1804.63117291 -699.06429246 1788.91855231 -719.19580078 1772.47216797 C-720.78273046 1771.17728489 -722.37348737 1769.88709522 -723.96484375 1768.59765625 C-734.62483343 1759.94130634 -745.02733013 1751.01638626 -755.0859375 1741.66796875 C-757.27385116 1739.66482528 -759.47966215 1737.70462073 -761.71948242 1735.76123047 C-774.08259413 1724.95631153 -785.75990978 1713.40392197 -797.34887695 1701.78149414 C-799.58885186 1699.5360842 -801.83422696 1697.29617161 -804.08007812 1695.05664062 C-805.53417542 1693.60188354 -806.98796303 1692.14681682 -808.44140625 1690.69140625 C-809.42748619 1689.70836266 -809.42748619 1689.70836266 -810.43348694 1688.70545959 C-814.24923732 1684.87057284 -817.88607358 1680.9290683 -821.41404724 1676.82749939 C-824.03081401 1673.8121891 -826.76956598 1670.91205112 -829.5 1668 C-834.09150696 1663.07495537 -838.63232877 1658.12601415 -843 1653 C-844.17369141 1651.62714844 -844.17369141 1651.62714844 -845.37109375 1650.2265625 C-848.26402015 1646.83161565 -851.13573885 1643.41915061 -854 1640 C-854.81911865 1639.02232666 -854.81911865 1639.02232666 -855.65478516 1638.02490234 C-863.82665171 1628.24622121 -871.70912478 1618.2877371 -879.39111328 1608.12060547 C-880.99935947 1606.00084425 -882.62031319 1603.89149195 -884.24609375 1601.78515625 C-921.64702314 1553.3112135 -953.54425565 1500.85854731 -981.29833984 1446.3359375 C-982.80903482 1443.37436847 -984.33365464 1440.42056581 -985.86328125 1437.46875 C-1026.6617301 1358.11434674 -1054.63728605 1270.05249645 -1084 1084 C-1084.0835675 1083.09638733 -1084.16713501 1082.19277466 -1084.25323486 1081.26177979 C-1089.43444547 1024.74936538 -1089.22494538 966.49716181 -1084 910 C-1083.91514343 909.06416077 -1083.83028687 908.12832153 -1083.74285889 907.16412354 C-1075.36140899 815.20169547 -1055.00836039 724.19266263 -984.61230469 554.27148438 C-983.10944326 551.22206839 -981.61978312 548.16656163 -980.1328125 545.109375 C-974.04822352 532.68039578 -967.38986061 520.64055113 -960.50195312 508.64111328 C-958.74595589 505.55327549 -957.04450235 502.4383809 -955.34887695 499.31713867 C-938.81848515 469.00504959 -919.31149342 439.90568098 -899 412 C-898.46536133 411.26249512 -897.93072266 410.52499023 -897.37988281 409.76513672 C-881.57362538 387.99892165 -864.8163681 367.06049004 -847.36083984 346.59912109 C-845.95021698 344.94150004 -844.54712211 343.27770172 -843.14453125 341.61328125 C-836.34463016 333.57415642 -829.27242121 325.83437817 -822.04003906 318.18359375 C-820.51985897 316.55644072 -819.01357233 314.91628614 -817.51464844 313.26953125 C-809.45177952 304.41251091 -801.06065368 295.90702005 -792.58056641 287.45019531 C-790.23613323 285.11116519 -787.89715129 282.76677803 -785.55859375 280.421875 C-784.04459166 278.90853313 -782.5302797 277.39550119 -781.015625 275.8828125 C-780.32897766 275.19414093 -779.64233032 274.50546936 -778.93487549 273.79592896 C-775.01957356 269.89928722 -771.00555401 266.17539602 -766.81610107 262.57455444 C-763.80361092 259.96273408 -760.90811106 257.22676534 -758 254.5 C-753.07464298 249.90780598 -748.11273466 245.38366239 -743 241 C-741.96587775 240.10056855 -740.93205147 239.20079676 -739.8984375 238.30078125 C-733.43161459 232.69053356 -726.87037199 227.25117144 -720.10644531 222.00268555 C-716.37462266 219.10160541 -712.73219828 216.11886935 -709.125 213.0625 C-702.66876592 207.64676863 -695.95287607 202.6147613 -689.17578125 197.609375 C-686.96647821 195.97520471 -684.76412553 194.33199516 -682.5625 192.6875 C-643.11190601 163.30787586 -601.45777954 137.03340516 -558 114 C-557.0394873 113.49082031 -556.07897461 112.98164062 -555.08935547 112.45703125 C-548.41468953 108.9286534 -541.71308489 105.45460647 -535 102 C-534.07880371 101.52240234 -533.15760742 101.04480469 -532.20849609 100.55273438 C-494.26835427 80.92875201 -454.36937059 64.86990801 -414 51 C-412.73895824 50.56224289 -411.47805624 50.12408295 -410.21728516 49.68554688 C-333.93361153 23.20231874 -254.3681302 7.19824254 -174 0 C-173.07707153 -0.0835675 -172.15414307 -0.16713501 -171.20324707 -0.25323486 C-114.64179247 -5.30438897 -56.54580061 -5.11999753 0 0 Z " fill="#DF362E" transform="translate(1087,3)"/>
<path d="M0 0 C295.17747099 0 295.17747099 0 338.328125 42.171875 C358.68778342 62.87479426 371.97876759 90.04754645 379 118 C379.21108398 118.82016602 379.42216797 119.64033203 379.63964844 120.48535156 C385.87561846 145.01716314 387.48467985 169.1620557 387.3225708 194.3805542 C387.3091558 197.20380131 387.31441159 200.02689024 387.3194313 202.85015488 C387.34873901 224.63588024 386.22858484 246.16669423 383.125 267.75 C382.95210449 268.96461914 382.77920898 270.17923828 382.60107422 271.43066406 C377.07730306 309.32082957 364.42749144 339.67190129 338 368 C337.2678125 368.78632812 336.535625 369.57265625 335.78125 370.3828125 C330.63853501 375.72471716 325.24540523 380.01554266 319 384 C318.13117188 384.57492187 317.26234375 385.14984375 316.3671875 385.7421875 C289.57748754 402.53238942 256.82347356 406.17749143 225.94262695 406.11352539 C223.9988998 406.11321863 222.05517253 406.11335328 220.11144543 406.11389065 C214.93241874 406.1141153 209.75341542 406.10834285 204.57439423 406.10128021 C199.70466543 406.09556178 194.83494217 406.09531582 189.96520996 406.09460449 C175.74763691 406.08936876 161.53006816 406.07540751 147.3125 406.0625 C99.6378125 406.0315625 99.6378125 406.0315625 51 406 C51 478.27 51 550.54 51 625 C34.17 625 17.34 625 0 625 C0 418.75 0 212.5 0 0 Z M50 47 C50 149.3 50 251.6 50 357 C81.123125 357.061875 112.24625 357.12375 144.3125 357.1875 C154.11106689 357.21481201 163.90963379 357.24212402 174.00512695 357.27026367 C182.84908137 357.28030185 182.84908137 357.28030185 191.69303894 357.28633118 C195.60809004 357.28910696 199.523017 357.30027216 203.43803406 357.31672668 C208.45435991 357.3375259 213.47050901 357.34343303 218.48687398 357.33921683 C220.3138209 357.34009657 222.14077493 357.34591272 223.96768439 357.35764539 C251.3339341 357.5250243 279.04992883 352.62031483 299.2890625 332.74609375 C300.18367188 331.83988281 301.07828125 330.93367188 302 330 C302.72960938 329.26910156 303.45921875 328.53820313 304.2109375 327.78515625 C313.91413243 317.48749681 320.61445307 304.97505727 326 292 C326.46277344 290.91203125 326.92554688 289.8240625 327.40234375 288.703125 C332.20410623 276.03464526 333.53521542 262.3919914 335 249 C335.08827057 248.21419556 335.17654114 247.42839111 335.26748657 246.61877441 C337.00679357 230.69357213 337.34535343 214.8280368 337.31567383 198.81933594 C337.31101648 196.09911683 337.31808293 193.37934212 337.33618164 190.65917969 C337.43816115 175.17279575 337.1805594 160.19913341 334 145 C333.79592529 143.95231445 333.59185059 142.90462891 333.3815918 141.82519531 C332.86618231 139.2849467 332.29885044 136.76868096 331.6875 134.25 C331.37220337 132.94397827 331.37220337 132.94397827 331.05053711 131.61157227 C329.06655688 123.72425341 326.36496267 116.40464793 323 109 C322.55011719 107.9790625 322.10023438 106.958125 321.63671875 105.90625 C310.16218048 81.34104131 290.21958892 63.33058738 265.04101562 53.72265625 C248.64099563 47.91595061 231.84463087 46.69665937 214.61181641 46.77294922 C212.77785946 46.77356327 210.94390204 46.77329256 209.1099453 46.7722187 C204.23977484 46.77177088 199.36970451 46.78328414 194.4995575 46.79743958 C189.91400875 46.80890809 185.32848323 46.80937006 180.74291992 46.81079102 C167.37026691 46.82124701 153.99763215 46.84916955 140.625 46.875 C95.765625 46.936875 95.765625 46.936875 50 47 Z " fill="#FEFDFD" transform="translate(806,949)"/>
<path d="M0 0 C0.72123047 -0.01224609 1.44246094 -0.02449219 2.18554688 -0.03710938 C15.01134073 -0.07161824 26.15461143 4.81281284 35.6875 13.1875 C36.61369141 13.97253906 36.61369141 13.97253906 37.55859375 14.7734375 C45.48562828 22.01193229 51.76258841 32.93665076 52.97070312 43.71386719 C53.08812457 46.35783986 53.09734354 48.97882644 53.0625 51.625 C53.07410156 52.50220703 53.08570313 53.37941406 53.09765625 54.28320312 C53.03529572 68.38707632 46.90408897 80.66628521 37.30859375 90.828125 C25.39706372 101.55027721 12.14749061 105.62641946 -3.58984375 105.4609375 C-16.73781053 104.49518968 -29.56341739 98.07164337 -38.50390625 88.40625 C-50.29592326 73.94001747 -53.01407857 59.45573512 -51.3125 41.1875 C-50.50744014 37.12149544 -49.30128815 33.81124282 -47.3125 30.1875 C-46.83039062 29.29804687 -46.34828125 28.40859375 -45.8515625 27.4921875 C-38.3318976 14.39957297 -27.75179198 5.88184166 -13.3125 1.1875 C-8.90632983 0.02681423 -4.52915091 0.00398342 0 0 Z " fill="#FEFDFD" transform="translate(932.3125,696.8125)"/>
<path d="M0 0 C9.70939128 7.69295574 17.42613412 19.62093953 19 32 C20.38023973 47.3623557 18.56441844 61.22291544 8.87109375 73.79296875 C8.25363281 74.52128906 7.63617187 75.24960937 7 76 C6.39285156 76.71800781 5.78570313 77.43601562 5.16015625 78.17578125 C-4.11564484 88.24827691 -17.17027096 93.36075323 -30.6640625 94.23828125 C-46.90921543 94.54267761 -59.05090455 89.58734625 -71.1875 78.5625 C-83.00010699 66.29701351 -85.58926572 51.94670643 -85.33984375 35.546875 C-84.88679882 24.39557826 -79.96633065 15.5599357 -73 7 C-72.50113281 6.37609375 -72.00226562 5.7521875 -71.48828125 5.109375 C-52.99966188 -15.56807337 -21.58255582 -15.49353342 0 0 Z " fill="#FEFEFE" transform="translate(966,576)"/>
<path d="M0 0 C1.51907959 0.00749268 1.51907959 0.00749268 3.06884766 0.01513672 C15.10395879 0.29466437 24.16540416 4.23835101 33.75 11.5 C34.78125 12.2425 35.8125 12.985 36.875 13.75 C45.58606788 22.08232579 52.50405097 33.88445894 53.0859375 46.1015625 C53.38835538 62.88077001 50.05725039 77.08534048 38.49609375 89.84765625 C25.8560076 101.80908006 12.40022658 104.93293634 -4.3515625 104.7109375 C-9.75022194 104.54610847 -14.33254413 103.79423557 -19.25 101.5 C-20.59578125 100.87931641 -20.59578125 100.87931641 -21.96875 100.24609375 C-37.90499234 92.21230125 -45.72229211 80.08312368 -51.25 63.5 C-52.73393743 46.22246019 -51.20762403 32.91960834 -40.34765625 18.93359375 C-29.65142833 6.52437588 -16.33976408 -0.10583803 0 0 Z " fill="#FEFEFE" transform="translate(932.25,426.5)"/>
<path d="M0 0 C10.79103516 7.57746124 19.83040652 18.31634497 22.30859375 31.62109375 C23.68579452 44.20828645 23.54693735 56.36048873 17.30859375 67.62109375 C16.78910156 68.59175781 16.26960938 69.56242187 15.734375 70.5625 C8.5761166 82.82664901 -3.02916121 91.08420765 -16.61376953 95.20410156 C-27.68047945 97.42524616 -41.72977746 97.07306626 -51.69140625 91.62109375 C-52.55765625 91.1621875 -53.42390625 90.70328125 -54.31640625 90.23046875 C-66.3036551 83.45196494 -75.29884784 73.92367584 -79.69140625 60.62109375 C-83.96991257 45.02172218 -82.80628002 30.43747679 -74.81640625 16.37109375 C-67.24049845 4.44186579 -56.57888738 -3.91522057 -42.82373047 -7.9230957 C-27.91577702 -11.10985424 -12.67975468 -8.1353306 0 0 Z " fill="#FEFEFE" transform="translate(1096.69140625,435.37890625)"/>
<path d="M0 0 C5.71525726 3.38249919 11.10463 7.20193892 13.0625 13.8125 C13.85716575 21.08612426 14.34545465 28.72708653 10.40234375 35.16796875 C7.07319005 39.25418947 3.02928772 42.91750608 -1.9375 44.8125 C-5.3984375 45.11328125 -5.3984375 45.11328125 -9.3125 45.125 C-10.59898438 45.14175781 -11.88546875 45.15851562 -13.2109375 45.17578125 C-19.09505984 44.60217184 -23.7828033 41.9671967 -27.9375 37.8125 C-32.99994413 30.60825258 -34.26281171 23.48134219 -32.9375 14.8125 C-30.67465651 7.85788926 -26.16513259 3.46048562 -19.9375 -0.1875 C-13.94920177 -2.18359941 -5.93777111 -2.36176514 0 0 Z " fill="#FEFCFC" transform="translate(1076.9375,722.1875)"/>
<path d="M0 0 C5.42978295 3.17398586 10.4331995 8.58777794 12.6875 14.5 C13.51819826 22.34333703 13.7667789 30.09114515 8.6875 36.5 C3.68468665 41.911459 -2.1152447 45.52835692 -9.625 45.9375 C-15.92868524 45.66902959 -21.69660077 43.85527458 -26.4296875 39.59375 C-32.65773731 32.66795187 -33.96057073 27.54469058 -33.6875 18.20703125 C-32.92170786 10.63685689 -28.77578252 6.47135647 -23.15625 1.7265625 C-16.47979334 -2.71497858 -7.33779469 -3.23894844 0 0 Z " fill="#FEFDFD" transform="translate(1077.3125,590.5)"/>
</svg>
